<?xml version="1.0" encoding="UTF-8" standalone="no"?>
<svg
   xmlns:dc="http://purl.org/dc/elements/1.1/"
   xmlns:cc="http://creativecommons.org/ns#"
   xmlns:rdf="http://www.w3.org/1999/02/22-rdf-syntax-ns#"
   xmlns:svg="http://www.w3.org/2000/svg"
   xmlns="http://www.w3.org/2000/svg"
   xmlns:sodipodi="http://sodipodi.sourceforge.net/DTD/sodipodi-0.dtd"
   xmlns:inkscape="http://www.inkscape.org/namespaces/inkscape"
   width="12pt"
   height="12pt"
   viewBox="0 0 12 12"
   version="1.1"
   id="svg9"
   sodipodi:docname="U+1F707.svg"
   inkscape:version="0.92.5 (2060ec1f9f, 2020-04-08)">
  <metadata
     id="metadata15">
    <rdf:RDF>
      <cc:Work
         rdf:about="">
        <dc:format>image/svg+xml</dc:format>
        <dc:type
           rdf:resource="http://purl.org/dc/dcmitype/StillImage" />
        <dc:title />
      </cc:Work>
    </rdf:RDF>
  </metadata>
  <defs
     id="defs13" />
  <sodipodi:namedview
     pagecolor="#ffffff"
     bordercolor="#666666"
     borderopacity="1"
     objecttolerance="10"
     gridtolerance="10"
     guidetolerance="10"
     inkscape:pageopacity="0"
     inkscape:pageshadow="2"
     inkscape:window-width="1920"
     inkscape:window-height="1015"
     id="namedview11"
     showgrid="false"
     inkscape:zoom="45.254834"
     inkscape:cx="6.730932"
     inkscape:cy="5.6778696"
     inkscape:window-x="0"
     inkscape:window-y="0"
     inkscape:window-maximized="1"
     inkscape:current-layer="svg9"
     inkscape:snap-object-midpoints="true"
     inkscape:snap-midpoints="true"
     inkscape:snap-smooth-nodes="true" />
  <g
     id="g848"
     transform="translate(-0.065258)">
    <path
       sodipodi:nodetypes="csccccssccssccscccscccscscsccccccccscccc"
       d="m 7.005,6.537 1.969e-4,0.9278435 c 1.022e-4,0.4817708 0.00326,0.9082031 0.00977,1.2792968 0.00977,0.3710938 0.030924,0.6526693 0.063477,0.8447266 H 6.0042251 c 0.035807,-0.1953125 0.056966,-0.4768881 0.063477,-0.8447266 0.00651,-0.3710937 0.00977,-0.797526 0.00977,-1.2792968 V 4.7060544 c 0,-0.4785156 -0.00326,-0.9228515 -0.00977,-1.3330078 -0.00651,-0.4134115 -0.027672,-0.7177735 -0.063477,-0.913086 l 0.5615235,-0.024414 c 0.3743489,-0.016276 0.8463541,-0.024414 1.4160156,-0.024414 0.5078125,0 0.953776,0.069987 1.3378906,0.209961 0.3841146,0.1367187 0.6835932,0.3515625 0.8984372,0.6445312 0.218099,0.2929688 0.327149,0.6754558 0.327149,1.1474609 0,0.3873698 -0.0765,0.7161459 -0.229492,0.9863282 C 10.166009,5.669596 9.972324,5.8893225 9.7346939,6.0585934 9.5003189,6.224609 9.2496679,6.3466793 8.9827408,6.4248043 8.7190689,6.4996741 8.4749282,6.537109 8.2503189,6.537109 Z M 7.0051969,3.2167966 V 5.78025 l 0.9277344,2.31e-5 C 8.4830615,5.7802868 8.9013558,5.6663408 9.1878141,5.4384763 9.4742724,5.2073565 9.6175016,4.8899737 9.6175016,4.4863278 9.6175016,4.0696611 9.4856657,3.7506507 9.2219938,3.5292966 8.9615771,3.3046872 8.5318896,3.1923825 7.9329313,3.1923825 c -0.1692709,0 -0.3336589,0.00326 -0.4931641,0.00977 -0.1595052,0.00325 -0.304362,0.00814 -0.4345703,0.014648 z M 7.9622281,6.488281 8.7141813,6.12207 8.8801969,6.3515622 c 0.1106771,0.1497396 0.2539062,0.3466797 0.4296875,0.5908203 0.1790365,0.2408854 0.3710938,0.5013021 0.5761719,0.78125 0.2050777,0.2766927 0.4052727,0.546875 0.6005857,0.8105469 0.195313,0.2636719 0.366211,0.4915364 0.512695,0.6835937 0.146485,0.1888021 0.247396,0.3125001 0.302735,0.3710938 h -1.245117 z"
       style="font-style:normal;font-variant:normal;font-weight:normal;font-stretch:normal;font-size:10px;line-height:1.25;font-family:andika;-inkscape-font-specification:andika;font-variant-ligatures:normal;font-variant-caps:normal;font-variant-numeric:normal;font-feature-settings:normal;text-align:center;writing-mode:lr-tb;text-anchor:middle;fill:#000000;fill-opacity:1;stroke:none;stroke-width:0.75;stroke-linecap:square;stroke-linejoin:round;stroke-miterlimit:10;stroke-dasharray:none;stroke-dashoffset:0;stroke-opacity:1;paint-order:stroke fill markers"
       id="path823"
       inkscape:connector-curvature="0" />
    <path
       d="M 6.0042253,9.5888671 H 7.05403 L 7.005,7.8066405 V 6.537 5.78025 4.2421874 L 6.628066,2.4599608 H 5.529434 l -4.70099,7.1289063 h 1.049805 l 4.19806,-6.1767578 z"
       style="font-style:normal;font-variant:normal;font-weight:normal;font-stretch:normal;font-size:10px;line-height:1.25;font-family:andika;-inkscape-font-specification:andika;font-variant-ligatures:normal;font-variant-caps:normal;font-variant-numeric:normal;font-feature-settings:normal;text-align:center;writing-mode:lr-tb;text-anchor:middle;fill:#000000;fill-opacity:1;stroke:none;stroke-width:0.75;stroke-linecap:square;stroke-linejoin:round;stroke-miterlimit:10;stroke-dasharray:none;stroke-dashoffset:0;stroke-opacity:1;paint-order:stroke fill markers"
       id="path836"
       inkscape:connector-curvature="0"
       sodipodi:nodetypes="cccccccccccc" />
    <path
       sodipodi:nodetypes="ccccc"
       inkscape:connector-curvature="0"
       id="rect841"
       d="M 3.74325,5.78025 H 6.9225 V 6.537 H 3.74325 Z"
       style="opacity:1;vector-effect:none;fill:#000000;fill-opacity:1;stroke:none;stroke-width:0.75;stroke-linecap:square;stroke-linejoin:round;stroke-miterlimit:10;stroke-dasharray:none;stroke-dashoffset:0;stroke-opacity:1;paint-order:stroke fill markers" />
  </g>
</svg>
